<?xml version="1.0" encoding="UTF-8"?>
<svg id="_レイヤー_2" data-name="レイヤー 2" xmlns="http://www.w3.org/2000/svg" xmlns:xlink="http://www.w3.org/1999/xlink"
  viewBox="0 0 260.01 58.73">
  <defs>
    <style>
      /*
Generated by
waitanimate.wstone.uk
*/

      .dot,
      .f2,
      .e2 {
        animation: f1Animate 20s linear infinite;
        /* transform-origin: 50% 50%; */
      }

      @keyframes f1Animate {
        0% {
          transform: perspective(100px) translateX(100%)
        }

        2.273% {
          /* transform: perspective(100px)rotateX(180deg)rotateY(0); */
        }

        4.545% {
          /* transform: perspective(100px)rotateX(180deg)rotateY(180deg); */
        }

        6.818% {
          /* transform: perspective(100px)rotateX(0)rotateY(180deg); */
        }

        9.091% {
          transform: perspective(100px)rotateX(0)rotateY(0);
        }

        100% {
          transform: perspective(100px)rotateX(0)rotateY(0);
        }
      }



      /*
Generated by
waitanimate.wstone.uk
*/

      .v1 {
        animation: r1Animate 19s linear infinite;
        /* animation-delay: 3s; */
        transform-origin: 50% 50%;
      }

      @keyframes r1Animate {
        0% {
          transform: perspective(100px)translateX(100%)
        }

        2.632% {
          /* transform: perspective(100px)rotateX(180deg)rotateY(0); */
        }

        5.263% {
          /* transform: perspective(100px)rotateX(180deg)rotateY(180deg); */
        }

        7.895% {
          /* transform: perspective(100px)rotateX(0)rotateY(180deg); */
        }

        10.526% {
          transform: perspective(100px)rotateX(0)rotateY(0);
        }

        100% {
          transform: perspective(100px)rotateX(0)rotateY(0);
        }
      }

      /*
Generated by
waitanimate.wstone.uk
*/

      .e1 {
        animation: d1Animate 16s linear infinite;
        /* animation-delay: 6s; */
        transform-origin: 50% 50%;
      }

      @keyframes d1Animate {
        0% {
          transform: perspective(100px)translateX(100%)
        }

        3.125% {
          transform: perspective(100px)rotateX(180deg)rotateY(0);
        }

        6.25% {
          transform: perspective(100px)rotateX(180deg)rotateY(180deg);
        }

        9.375% {
          transform: perspective(100px)rotateX(0)rotateY(180deg);
        }

        12.5% {
          transform: perspective(100px)rotateX(0)rotateY(0);
        }

        100% {
          transform: perspective(100px)rotateX(0)rotateY(0);
        }
      }

      /*
Generated by
waitanimate.wstone.uk
*/

      .d1,
      .d2 {
        animation: d1Animate 14s linear infinite;
        /* animation-delay: 8s; */
        transform-origin: 50% 50%;
      }

      @keyframes d1Animate {
        0% {
          transform: perspective(100px)translateX(100%)
        }

        3.571% {
          transform: perspective(100px)rotateX(180deg)rotateY(0);
        }

        7.143% {
          /* transform: perspective(100px)rotateX(180deg)rotateY(180deg); */
        }

        10.714% {
          /* transform: perspective(100px)rotateX(0)rotateY(180deg); */
        }

        14.286% {
          transform: perspective(100px)rotateX(0)rotateY(0);
        }

        100% {
          transform: perspective(100px)rotateX(0)rotateY(0);
        }
      }

      /*
Generated by
waitanimate.wstone.uk
*/

      .r1,
      .r2 {
        animation: v1Animate 11s linear infinite;
        /* animation-delay: 11s; */
        transform-origin: 50% 50%;
      }

      @keyframes v1Animate {
        0% {
          transform: perspective(100px)translateX(100%)
        }

        4.545% {
          transform: perspective(100px)rotateX(180deg)rotateY(0);
        }

        9.091% {
          transform: perspective(100px)rotateX(180deg)rotateY(180deg);
        }

        13.636% {
          transform: perspective(100px)rotateX(0)rotateY(180deg);
        }

        18.182% {
          transform: perspective(100px)rotateX(0)rotateY(0);
        }

        100% {
          transform: perspective(100px)rotateX(0)rotateY(0);
        }
      }

      /*
Generated by
waitanimate.wstone.uk
*/

      .f1 {
        animation: dotAnimate 8s linear infinite;
        /* animation-delay: 14s; */
        /* transform-origin: 50% 50%; */
      }

      @keyframes dotAnimate {
        0% {
          transform: perspective(100px)translateX(100%)
        }

        6.25% {
          /* transform: perspective(100px)rotateX(180deg)rotateY(0); */
        }

        12.5% {
          transform: perspective(100px)rotateX(180deg)rotateY(180deg);
        }

        18.75% {
          /* transform: perspective(100px)rotateX(0)rotateY(180deg); */
        }

        25% {
          transform: perspective(100px)rotateX(0)rotateY(0);
        }

        100% {
          transform: perspective(100px)rotateX(0)rotateY(0);
        }
      }

      .dot,
      .f1,
      .f2,
      .r1,
      .d1,
      .d2,
      .e1,
      .e2,
      .v1,
      .r2,
      .d2 {
        stroke: #000;
        stroke-miterlimit: 10;
      }

      .f1,
      .f2,
      .r1,
      .d1,
      .e1,
      .e2,
      .v1 {
        fill: #fff;
      }
    </style>
    <linearGradient id="_名称未設定グラデーション_3" data-name="名称未設定グラデーション 3" x1="66.71" y1="-305.08" x2="79.71" y2="-305.08"
      gradientTransform="translate(0 -285.43) scale(1 -1)" gradientUnits="userSpaceOnUse">
      <stop offset="0" stop-color="#fff" />
      <stop offset="0" stop-color="#000" />
      <stop offset="1" stop-color="#000" />
    </linearGradient>
    <linearGradient id="_名称未設定グラデーション_3-2" data-name="名称未設定グラデーション 3" x1="136.65" y1="-314.78" x2="152.9" y2="-314.78"
      xlink:href="#_名称未設定グラデーション_3" />
    <linearGradient id="_名称未設定グラデーション_3-3" data-name="名称未設定グラデーション 3" x1="99.52" y1="-342.21" x2="102.33" y2="-342.21"
      xlink:href="#_名称未設定グラデーション_3" />
  </defs>
  <g id="_レイヤー_1-2" data-name="レイヤー 1">
    <g id="_レイヤー_1-2" data-name=" レイヤー 1-2">
      <polygon class="f1"
        points="6.63 .5 35.05 .5 35.05 4.58 10.62 4.58 10.62 27.36 10.62 31.41 10.62 58.18 6.63 58.18 6.63 31.38 6.6 27.36 6.63 .5" />
      <path class="r1"
        d="M63.52,37.87l20.31,20.31h6.58l-20.4-20.32c8.14-2.33,13.8-9.8,13.83-18.24,.03-8.51-5.68-16.05-13.89-18.37h-6.43V33.81s-3.12,.54-4.99-1.6l-2.39,3.23s.88,2.44,7.38,2.43Z" />
      <path class="r2" d="M70,5.43c5.83,2.28,9.7,7.92,9.71,14.17,.02,6.28-3.85,11.97-9.71,14.26h-3.3V5.43h3.3Z" />
      <path class="d1"
        d="M135.82,57.4c12.5-3.6,21.16-15.12,21.13-28.1-.03-12.93-8.67-24.38-21.11-27.96h-2.47V57.4h2.45Z" />
      <path class="d2" d="M137.45,6.18c9.33,3.89,15.44,13.05,15.45,23.16,0,10.12-6.11,19.29-15.45,23.19h-.8V6.18h.8Z" />
      <polygon class="e1"
        points="178.67 35.48 179.67 .51 208.18 .51 208.18 4.58 183.69 4.58 183.71 35.48 179.67 35.48" />
      <rect class="e1" x="178.03" y="54.13" width="26.95" height="4.09" />
      <polygon class="v1" points="215.49 .51 219.54 .51 232.54 50.07 228.47 50.07 215.49 .51" />
      <polygon class="v1" points="255.31 .52 240.68 54.15 229.3 54.15 230.1 58.21 243.94 58.21 259.36 .53 255.31 .52" />
      <path class="dot"
        d="M100.93,55.38h0c.77,0,1.4,.63,1.4,1.4h0c0,.77-.63,1.4-1.4,1.4h0c-.77,0-1.4-.63-1.4-1.4h0c0-.77,.63-1.4,1.4-1.4Z" />
      <polygon class="r1" points="48.19 9.49 71.67 9.49 71.67 13.53 52.19 13.53 52.19 58.23 48.19 58.23 48.19 9.49" />
      <polygon class="d1"
        points="113.46 9.42 113.46 57.4 128.87 57.4 128.87 53.34 117.48 53.34 117.48 13.5 140.25 13.5 140.25 9.42 113.46 9.42" />
    </g>
    <rect class="f2" x=".5" y="22.25" width="29.64" height="4.26" />

    <rect class="e2" x="165.73" y="22.25" width="29.51" height="4.26" />
  </g>
</svg>