<?xml version="1.0" encoding="UTF-8"?>
<svg id="_レイヤー_2" data-name="レイヤー 2" xmlns="http://www.w3.org/2000/svg" xmlns:xlink="http://www.w3.org/1999/xlink" viewBox="0 0 373.64 83.17">
  <defs>
    <style>
      .cls-1 {
        fill: url(#_名称未設定グラデーション_12);
      }

      .cls-1, .cls-2, .cls-3, .cls-4 {
        stroke: #000;
        stroke-miterlimit: 10;
      }

      .cls-2 {
        fill: url(#_名称未設定グラデーション_12-2);
      }

      .cls-3 {
        fill: url(#_名称未設定グラデーション_12-3);
      }

      .cls-4 {
        fill: #fff;
      }
    </style>
    <linearGradient id="_名称未設定グラデーション_12" data-name="名称未設定グラデーション 12" x1="98.8" y1="27.74" x2="117.31" y2="27.74" gradientUnits="userSpaceOnUse">
      <stop offset="0" stop-color="#fff"/>
      <stop offset="0" stop-color="#000"/>
      <stop offset="1" stop-color="#000"/>
    </linearGradient>
    <linearGradient id="_名称未設定グラデーション_12-2" data-name="名称未設定グラデーション 12" x1="198.33" y1="41.56" x2="221.47" y2="41.56" xlink:href="#_名称未設定グラデーション_12"/>
    <linearGradient id="_名称未設定グラデーション_12-3" data-name="名称未設定グラデーション 12" x1="145.5" y1="80.6" x2="149.49" y2="80.6" xlink:href="#_名称未設定グラデーション_12"/>
  </defs>
  <g id="_レイヤー_1-2" data-name="レイヤー 1">
    <polygon class="cls-4" points="13.29 .5 53.73 .5 53.73 6.31 18.96 6.31 18.96 38.73 42.16 38.73 42.2 44.5 18.96 44.5 18.96 82.6 13.29 82.6 13.29 44.45 .5 44.45 .5 38.73 13.24 38.73 13.29 .5"/>
    <path class="cls-4" d="M94.25,53.69l28.91,28.91h9.36l-29.03-28.92c11.59-3.31,19.64-13.95,19.68-25.96,.04-12.11-8.08-22.85-19.77-26.15h-9.15V47.91s-4.44,.77-7.1-2.28l-3.4,4.6s1.25,3.47,10.5,3.46Z"/>
    <path class="cls-1" d="M103.48,7.51c8.3,3.25,13.8,11.27,13.82,20.17,.03,8.94-5.48,17.03-13.82,20.3h-4.69V7.51h4.68Z"/>
    <path class="cls-4" d="M197.16,81.48c17.79-5.12,30.12-21.52,30.07-40-.04-18.4-12.34-34.7-30.05-39.8h-3.51V81.48h3.48Z"/>
    <path class="cls-2" d="M199.48,8.58c13.28,5.54,21.98,18.57,21.99,32.96,0,14.4-8.7,27.46-21.99,33h-1.14V8.58h1.15Z"/>
    <polygon class="cls-4" points="255.01 .52 295.59 .52 295.59 6.3 260.73 6.3 260.73 38.69 284.03 38.69 284.03 44.41 260.6 44.41 260.6 50.12 255.01 50.12 255.01 44.41 242.16 44.41 242.16 38.63 254.95 38.63 255.01 .52"/>
    <rect class="cls-4" x="257.23" y="76.83" width="38.35" height="5.82"/>
    <polygon class="cls-4" points="310.55 .51 316.32 .51 334.82 71.05 329.02 71.05 310.55 .51"/>
    <polygon class="cls-4" points="367.22 .53 346.4 76.86 330.2 76.86 331.35 82.63 351.04 82.63 372.99 .54 367.22 .53"/>
    <rect class="cls-3" x="145.5" y="78.61" width="3.99" height="3.99" rx="2" ry="2"/>
    <polygon class="cls-4" points="72.44 13.29 105.85 13.29 105.85 19.04 78.13 19.04 78.13 82.67 72.44 82.67 72.44 13.29"/>
    <polygon class="cls-4" points="165.33 13.19 165.33 81.49 187.27 81.49 187.27 75.71 171.06 75.71 171.06 19 203.47 19 203.47 13.19 165.33 13.19"/>
  </g>
</svg>