<?xml version="1.0" encoding="UTF-8"?>
<svg id="_レイヤー_2" data-name="レイヤー 2" xmlns="http://www.w3.org/2000/svg" viewBox="0 0 41.17 60.83">
  <defs>
    <style>
      /* .box1, */
      /* .box2,
      .box4, */
      .box3
      /* .box1Inner */

      /* .box2Inner,
      .box2block1,
      .box2Dot,
      .box2block2,
      .box2block3, */
      /* .box3Dot */
        {
        /* opacity: 0%; */
        /* animation-name: waitAnimate2;
        animation-duration: 1s;
        animation-timing-function: ease-in;
        animation-delay: 1s;
        animation-iteration-count: infinite;
        animation-direction: alternate;
        animation-fill-mode: forwards;
        animation-play-state: running; */
        animation: waitAnimate 8s linear infinite;
      }


      @keyframes waitAnimate2 {
        0% {
          transform: perspective(100px)rotate(0deg)
        }

        6.25% {
          transform: perspective(100px)rotateX(180deg)rotateY(0);
        }

        12.5% {
          transform: perspective(100px)rotateX(180deg)rotateY(180deg);
        }

        18.75% {
          transform: perspective(100px)rotateX(0)rotateY(180deg);
        }

        25% {
          transform: perspective(100px)rotateX(0)rotateY(0);
        }

        100% {
          transform: perspective(100px)rotateX(0)rotateY(0);
        }
      }


      @keyframes waitAnimate {
        0% {
          transform: matrix(0, 0, 0.1, 0.1, 50, 40);
          /* transform: perspective(100px)rotate(0deg) */
        }

        4.545% {
          /* transform: perspective(100px)rotateX(180deg)rotateY(0); */
          transform: matrix(1, 0, 0, 1, 0, -10);
          /* transform: translateX(-40px); */
          /* transform: translate(-10px, -10px); */
        }

        9.091% {
          /* transform: perspective(100px)rotateX(180deg)rotateY(180deg); */
        }

        13.636% {
          /* transform: perspective(100px)rotateX(0)rotateY(180deg); */
          transform: matrix(0.02, 0, 0, 1, 0, -10);
        }

        15.182% {
          transform: matrix(0.0001, 0, 0, 1, 0, -10);
          /* display: none; */
          /* transform: matrix(0.6, 0, 0, 1, 0, -10); */
          /* transform: perspective(100px)rotateX(0)rotateY(0); */
          /* transform: perspective(100px)rotateX(0)rotateY(180deg); */
        }

        100% {
          transform: matrix(0, 0, 0, 1, 0, -10);
          /* opacity: 0; */
          /* transform: perspective(100px)rotateX(0)rotateY(0); */
          /* display: none; */
          /* transform: translateX(-40px); */
        }
      }



      .box1Inner,
      .box2Inner,
      .box2block2,
      .box2block3,
      .box3Dot,
      .cls-2 {
        fill: #fff;
      }


      .box1,
      .box2,
      .box4,
      .box3 {
        fill: #0566e9;
      }

      .box2block1 {
        fill: #292938;
      }




      .cls-2,
      .box2block3,
      .cls-5 {
        opacity: .3;
      }
    </style>
  </defs>
  <g id="_レイヤー_1-2" data-name="レイヤー 1">
    <path class="box3"
      d="M19.09,39.4h17.91c1.44,0,2.6,1.07,2.6,2.39v7.04c0,1.32-1.16,2.39-2.6,2.39H19.09c-1.44,0-2.6-1.07-2.6-2.39v-7.04c0-1.32,1.16-2.39,2.6-2.39Z" />
    <path class="box3Dot"
      d="M33.21,45.3c0-.38,.34-.69,.75-.69h0c.42,0,.76,.32,.75,.7s-.35,.7-.76,.69-.76-.32-.75-.7h.01Z" />
    <path class="box3Dot"
      d="M29.27,45.3c0-.38,.34-.69,.75-.69h0c.42,0,.76,.32,.75,.7s-.35,.7-.76,.69c-.42,0-.76-.32-.75-.7h.01Z" />
    <path class="box3Dot"
      d="M25.32,45.3c0-.38,.34-.69,.75-.69h0c.42,0,.76,.32,.75,.7s-.35,.7-.76,.69c-.42,0-.76-.32-.75-.7h.01Z" />
    <path class="box3Dot"
      d="M21.37,45.3c0-.38,.34-.69,.75-.69h0c.42,0,.76,.32,.75,.7s-.35,.7-.76,.69c-.42,0-.76-.32-.75-.7h.01Z" />
    <rect class="box1" x="21.08" width="20.1" height="13.11" />
    <g class="cls-5">
      <path class="box1Inner"
        d="M28.29,10.01c-.05,0-.11-.02-.14-.06l-3.02-3.02c-.08-.08-.09-.22,0-.31,0,0,0,0,0,0l3.02-3.05c.08-.09,.21-.09,.3,0,0,0,0,0,0,0,.08,.09,.08,.22,0,.31l-2.87,2.9,2.86,2.86c.08,.08,.08,.22,0,.31,0,0,0,0,0,0-.04,.04-.09,.06-.15,.07Z" />
    </g>
    <g class="cls-5">
      <path class="box1Inner"
        d="M34.26,10.01c-.12,0-.21-.1-.21-.22,0-.06,.02-.12,.06-.16l2.86-2.9-2.86-2.86c-.08-.08-.09-.22,0-.31,.08-.09,.21-.09,.3,0h0l3.02,3.02s.06,.1,.06,.16c0,.06-.02,.12-.06,.16l-3.02,3.05s-.09,.07-.15,.07Z" />
    </g>
    <g class="cls-5">
      <path class="box1Inner"
        d="M29.87,9.61s-.07,0-.1-.02c-.1-.06-.14-.19-.09-.29,0,0,0,0,0,0l2.73-5.46c.05-.11,.17-.16,.28-.11,.11,.05,.15,.18,.11,.29,0,0,0,.02-.01,.02l-2.73,5.46c-.04,.07-.11,.12-.19,.12Z" />
    </g>
    <rect class="box2" x="16.13" y="8.4" width="16.75" height="19.04" />
    <rect class="box2block3" x="16.13" y="8.4" width="16.75" height="3.06" />
    <rect class="box2block1" x="17.47" y="12.42" width="5.17" height="5.17" />
    <circle class="box2Dot" cx="28.05" cy="9.94" r=".34" />
    <circle class="box2Dot" cx="29.77" cy="9.94" r=".34" />
    <circle class="box2Dot" cx="31.49" cy="9.94" r=".34" />
    <path class="box2Inner"
      d="M28.57,14.15h-4.79c-.05,0-.1-.04-.1-.1,0-.05,.04-.1,.1-.1h4.78c.05,0,.1,.04,.1,.1,0,.05-.04,.1-.1,.1h0Z" />
    <path class="box2Inner"
      d="M29.96,15.29h-6.12c-.05,0-.1-.04-.1-.1,0-.05,.04-.1,.1-.1h6.12c.05,0,.1,.04,.1,.1s-.04,.1-.1,.1h0Z" />
    <path class="box2Inner"
      d="M31.49,16.44h-7.66c-.05,0-.09-.05-.09-.11,0-.05,.04-.08,.09-.09h7.66c.05,0,.09,.05,.09,.11,0,.05-.04,.08-.09,.09Z" />
    <path class="box2Inner"
      d="M28.33,22.57h-7.46c-.05,0-.1-.03-.11-.09,0-.05,.03-.1,.09-.11,0,0,.01,0,.02,0h7.46c.05,0,.09,.05,.09,.11,0,.05-.04,.08-.09,.09Z" />
    <path class="box2Inner"
      d="M30.73,23.71h-12.25c-.05,0-.1-.03-.11-.09,0-.05,.03-.1,.09-.11,0,0,.01,0,.02,0h12.25c.05,0,.1,.03,.11,.09,0,.05-.03,.1-.09,.11,0,0-.01,0-.02,0Z" />
    <path class="box2Inner"
      d="M28.38,24.86h-7.56c-.05,0-.1-.03-.11-.09,0-.05,.03-.1,.09-.11,0,0,.01,0,.02,0h7.56c.05,0,.1,.03,.11,.09,0,.05-.03,.1-.09,.11,0,0-.01,0-.02,0h0Z" />
    <rect class="box2block2" x="20.82" y="19.12" width="6.99" height="1.44" />
    <path class="box4"
      d="M1.75,52.57H13.78c.97,0,1.75,.75,1.75,1.67v4.92c0,.92-.78,1.67-1.75,1.67H1.75c-.97,0-1.75-.75-1.75-1.67v-4.92c0-.92,.78-1.67,1.75-1.67Z" />
  </g>
</svg>