<?xml version="1.0" encoding="UTF-8"?>
<svg id="_レイヤー_2" data-name="レイヤー 2" xmlns="http://www.w3.org/2000/svg" viewBox="0 0 93.38 60.83">
  <defs>
    <style>
      .box4 {
        animation: waitAnimate 11s linear infinite;
      }

      @keyframes waitAnimate {
        0% {
          transform: matrix(-0.1, 0, 0.01, 0.01, 200, 100);
          /* transform: perspective(100px)rotate(0deg) */
        }

        4.545% {
          /* transform: perspective(100px)rotateX(180deg)rotateY(0); */
          transform: matrix(-1, 0, 0, 1, 100, 20);
          /* transform: translateX(-40px); */
          /* transform: translate(-10px, -10px); */
        }

        8% {
          transform: matrix(-1.1, 0, 0, 1, 100, -10);
        }

        9.091% {
          /* transform: perspective(100px)rotateX(180deg)rotateY(180deg); */
          transform: matrix(1, 0, 0, 1, 0, -10);
        }

        13.636% {
          /* transform: perspective(100px)rotateX(0)rotateY(180deg); */
          /* transform: matrix(0., 0, 0, 1, 0, -10); */
          transform: matrix(-0.1, 0, 0, 1, 10, -10);
        }

        18.182% {

          transform: matrix(-0.1, 0, 0, 1, 10, -10);
          /* display: none; */
          /* transform: matrix(0.6, 0, 0, 1, 0, -10); */
          /* transform: perspective(100px)rotateX(0)rotateY(0); */
          /* transform: perspective(100px)rotateX(0)rotateY(180deg); */
        }

        100% {
          transform: matrix(0, 0, 0, 1, 0, -10);
          /* opacity: 0; */
          /* transform: perspective(100px)rotateX(0)rotateY(0); */
          /* display: none; */
          /* transform: translateX(-40px); */
        }
      }




      .cls-1,
      .cls-2 {
        fill: #fff;
      }

      .box4,
      .cls-3 {
        fill: #0566e9;
        /* transform: translateX(-60px); */
      }

      .cls-4 {
        fill: #292938;
      }

      .cls-2 {
        isolation: isolate;
      }

      .cls-2,
      .cls-5 {
        opacity: .3;
      }
    </style>
  </defs>
  <g id="_レイヤー_1-2" data-name="レイヤー 1">

    <path class="cls-3"
      d="M71.3,39.4h17.91c1.44,0,2.6,1.07,2.6,2.39v7.04c0,1.32-1.16,2.39-2.6,2.39h-17.91c-1.44,0-2.6-1.07-2.6-2.39v-7.04c0-1.32,1.16-2.39,2.6-2.39Z" />
    <path class="cls-1"
      d="M85.42,45.3c0-.38,.34-.69,.75-.69h0c.42,0,.76,.32,.75,.7s-.35,.7-.76,.69-.76-.32-.75-.7h.01Z" />
    <path class="cls-1"
      d="M81.48,45.3c0-.38,.34-.69,.75-.69h0c.42,0,.76,.32,.75,.7s-.35,.7-.76,.69c-.42,0-.76-.32-.75-.7h.01Z" />
    <path class="cls-1"
      d="M77.53,45.3c0-.38,.34-.69,.75-.69h0c.42,0,.76,.32,.75,.7s-.35,.7-.76,.69c-.42,0-.76-.32-.75-.7h.01Z" />
    <path class="cls-1"
      d="M73.59,45.3c0-.38,.34-.69,.75-.69h0c.42,0,.76,.32,.75,.7s-.35,.7-.76,.69c-.42,0-.76-.32-.75-.7h.01Z" />
    <rect class="cls-3" x="73.29" width="20.1" height="13.11" />
    <g class="cls-5">
      <path class="cls-1"
        d="M80.5,10.01c-.05,0-.11-.02-.14-.06l-3.02-3.02c-.08-.08-.09-.22,0-.31,0,0,0,0,0,0l3.02-3.05c.08-.09,.21-.09,.3,0,0,0,0,0,0,0,.08,.09,.08,.22,0,.31l-2.87,2.9,2.86,2.86c.08,.08,.08,.22,0,.31,0,0,0,0,0,0-.04,.04-.09,.06-.15,.07Z" />
    </g>
    <g class="cls-5">
      <path class="cls-1"
        d="M86.48,10.01c-.12,0-.21-.1-.21-.22,0-.06,.02-.12,.06-.16l2.86-2.9-2.86-2.86c-.08-.08-.09-.22,0-.31,.08-.09,.21-.09,.3,0h0l3.02,3.02s.06,.1,.06,.16c0,.06-.02,.12-.06,.16l-3.02,3.05s-.09,.07-.15,.07Z" />
    </g>
    <g class="cls-5">
      <path class="cls-1"
        d="M82.08,9.61s-.07,0-.1-.02c-.1-.06-.14-.19-.09-.29,0,0,0,0,0,0l2.73-5.46c.05-.11,.17-.16,.28-.11,.11,.05,.15,.18,.11,.29,0,0,0,.02-.01,.02l-2.73,5.46c-.04,.07-.11,.12-.19,.12Z" />
    </g>
    <rect class="cls-3" x="68.35" y="8.4" width="16.75" height="19.04" />
    <rect class="cls-2" x="68.35" y="8.4" width="16.75" height="3.06" />
    <rect class="cls-4" x="69.69" y="12.42" width="5.17" height="5.17" />
    <circle class="cls-2" cx="80.26" cy="9.94" r=".34" />
    <circle class="cls-2" cx="81.98" cy="9.94" r=".34" />
    <circle class="cls-2" cx="83.7" cy="9.94" r=".34" />
    <path class="cls-1"
      d="M80.79,14.15h-4.79c-.05,0-.1-.04-.1-.1,0-.05,.04-.1,.1-.1h4.78c.05,0,.1,.04,.1,.1,0,.05-.04,.1-.1,.1h0Z" />
    <path class="cls-1"
      d="M82.17,15.29h-6.12c-.05,0-.1-.04-.1-.1,0-.05,.04-.1,.1-.1h6.12c.05,0,.1,.04,.1,.1s-.04,.1-.1,.1h0Z" />
    <path class="cls-1"
      d="M83.7,16.44h-7.66c-.05,0-.09-.05-.09-.11,0-.05,.04-.08,.09-.09h7.66c.05,0,.09,.05,.09,.11,0,.05-.04,.08-.09,.09Z" />
    <path class="cls-1"
      d="M80.55,22.57h-7.46c-.05,0-.1-.03-.11-.09,0-.05,.03-.1,.09-.11,0,0,.01,0,.02,0h7.46c.05,0,.09,.05,.09,.11,0,.05-.04,.08-.09,.09Z" />
    <path class="cls-1"
      d="M82.94,23.71h-12.25c-.05,0-.1-.03-.11-.09,0-.05,.03-.1,.09-.11,0,0,.01,0,.02,0h12.25c.05,0,.1,.03,.11,.09,0,.05-.03,.1-.09,.11,0,0-.01,0-.02,0Z" />
    <path class="cls-1"
      d="M80.59,24.86h-7.56c-.05,0-.1-.03-.11-.09,0-.05,.03-.1,.09-.11,0,0,.01,0,.02,0h7.56c.05,0,.1,.03,.11,.09,0,.05-.03,.1-.09,.11,0,0-.01,0-.02,0h0Z" />
    <rect class="cls-2" x="73.03" y="19.12" width="6.99" height="1.44" />
    <path class="box4"
      d="M53.96,52.57h12.03c.97,0,1.75,.75,1.75,1.67v4.92c0,.92-.78,1.67-1.75,1.67h-12.03c-.97,0-1.75-.75-1.75-1.67v-4.92c0-.92,.78-1.67,1.75-1.67Z" />
    <rect class="cls-3" x="0" y="12.51" width="2.89" height="2.89" rx="1.44" ry="1.44" />
    <!-- <path id="cls-3" d="
		M 10,20
		Q .130,100  250,250&amp"
    stroke="#000" fill="none" /> -->
  </g>
</svg>