<?xml version="1.0" encoding="UTF-8"?>
<svg id="_レイヤー_2" data-name="レイヤー 2" xmlns="http://www.w3.org/2000/svg" viewBox="0 0 41.17 60.83">
  <defs>
    <style>
      .cls-1,
      .cls-2 {
        fill: #fff;

      }

      .cls-3 {
        fill: #0566e9;
        transform: translateX(-0px);
      }

      .cls-4 {
        fill: #292938;
      }

      .cls-2 {
        isolation: isolate;
      }

      .cls-2,
      .cls-5 {
        opacity: .3;
      }
    </style>
  </defs>
  <g id="_レイヤー_1-2" data-name="レイヤー 1">
    <path class="cls-3"
      d="M19.09,39.4h17.91c1.44,0,2.6,1.07,2.6,2.39v7.04c0,1.32-1.16,2.39-2.6,2.39H19.09c-1.44,0-2.6-1.07-2.6-2.39v-7.04c0-1.32,1.16-2.39,2.6-2.39Z" />
    <path class="cls-1"
      d="M33.21,45.3c0-.38,.34-.69,.75-.69h0c.42,0,.76,.32,.75,.7s-.35,.7-.76,.69-.76-.32-.75-.7h.01Z" />
    <path class="cls-1"
      d="M29.27,45.3c0-.38,.34-.69,.75-.69h0c.42,0,.76,.32,.75,.7s-.35,.7-.76,.69c-.42,0-.76-.32-.75-.7h.01Z" />
    <path class="cls-1"
      d="M25.32,45.3c0-.38,.34-.69,.75-.69h0c.42,0,.76,.32,.75,.7s-.35,.7-.76,.69c-.42,0-.76-.32-.75-.7h.01Z" />
    <path class="cls-1"
      d="M21.37,45.3c0-.38,.34-.69,.75-.69h0c.42,0,.76,.32,.75,.7s-.35,.7-.76,.69c-.42,0-.76-.32-.75-.7h.01Z" />
    <rect class="cls-3" x="21.08" width="20.1" height="13.11" />
    <g class="cls-5">
      <path class="cls-1"
        d="M28.29,10.01c-.05,0-.11-.02-.14-.06l-3.02-3.02c-.08-.08-.09-.22,0-.31,0,0,0,0,0,0l3.02-3.05c.08-.09,.21-.09,.3,0,0,0,0,0,0,0,.08,.09,.08,.22,0,.31l-2.87,2.9,2.86,2.86c.08,.08,.08,.22,0,.31,0,0,0,0,0,0-.04,.04-.09,.06-.15,.07Z" />
    </g>
    <g class="cls-5">
      <path class="cls-1"
        d="M34.26,10.01c-.12,0-.21-.1-.21-.22,0-.06,.02-.12,.06-.16l2.86-2.9-2.86-2.86c-.08-.08-.09-.22,0-.31,.08-.09,.21-.09,.3,0h0l3.02,3.02s.06,.1,.06,.16c0,.06-.02,.12-.06,.16l-3.02,3.05s-.09,.07-.15,.07Z" />
    </g>
    <g class="cls-5">
      <path class="cls-1"
        d="M29.87,9.61s-.07,0-.1-.02c-.1-.06-.14-.19-.09-.29,0,0,0,0,0,0l2.73-5.46c.05-.11,.17-.16,.28-.11,.11,.05,.15,.18,.11,.29,0,0,0,.02-.01,.02l-2.73,5.46c-.04,.07-.11,.12-.19,.12Z" />
    </g>
    <rect class="cls-3" x="16.13" y="8.4" width="16.75" height="19.04" />
    <rect class="cls-2" x="16.13" y="8.4" width="16.75" height="3.06" />
    <rect class="cls-4" x="17.47" y="12.42" width="5.17" height="5.17" />
    <circle class="cls-2" cx="28.05" cy="9.94" r=".34" />
    <circle class="cls-2" cx="29.77" cy="9.94" r=".34" />
    <circle class="cls-2" cx="31.49" cy="9.94" r=".34" />
    <path class="cls-1"
      d="M28.57,14.15h-4.79c-.05,0-.1-.04-.1-.1,0-.05,.04-.1,.1-.1h4.78c.05,0,.1,.04,.1,.1,0,.05-.04,.1-.1,.1h0Z" />
    <path class="cls-1"
      d="M29.96,15.29h-6.12c-.05,0-.1-.04-.1-.1,0-.05,.04-.1,.1-.1h6.12c.05,0,.1,.04,.1,.1s-.04,.1-.1,.1h0Z" />
    <path class="cls-1"
      d="M31.49,16.44h-7.66c-.05,0-.09-.05-.09-.11,0-.05,.04-.08,.09-.09h7.66c.05,0,.09,.05,.09,.11,0,.05-.04,.08-.09,.09Z" />
    <path class="cls-1"
      d="M28.33,22.57h-7.46c-.05,0-.1-.03-.11-.09,0-.05,.03-.1,.09-.11,0,0,.01,0,.02,0h7.46c.05,0,.09,.05,.09,.11,0,.05-.04,.08-.09,.09Z" />
    <path class="cls-1"
      d="M30.73,23.71h-12.25c-.05,0-.1-.03-.11-.09,0-.05,.03-.1,.09-.11,0,0,.01,0,.02,0h12.25c.05,0,.1,.03,.11,.09,0,.05-.03,.1-.09,.11,0,0-.01,0-.02,0Z" />
    <path class="cls-1"
      d="M28.38,24.86h-7.56c-.05,0-.1-.03-.11-.09,0-.05,.03-.1,.09-.11,0,0,.01,0,.02,0h7.56c.05,0,.1,.03,.11,.09,0,.05-.03,.1-.09,.11,0,0-.01,0-.02,0h0Z" />
    <rect class="cls-2" x="20.82" y="19.12" width="6.99" height="1.44" />
    <path class="cls-3"
      d="M1.75,52.57H13.78c.97,0,1.75,.75,1.75,1.67v4.92c0,.92-.78,1.67-1.75,1.67H1.75c-.97,0-1.75-.75-1.75-1.67v-4.92c0-.92,.78-1.67,1.75-1.67Z" />
  </g>
</svg>